<svg xmlns="http://www.w3.org/2000/svg" viewBox="0 0 512 512">
  <defs><linearGradient id="g" x1="0" y1="0" x2="1" y2="1"><stop stop-color="#10b981"/><stop offset="1" stop-color="#0284c7"/></linearGradient></defs>
  <rect width="512" height="512" rx="112" fill="url(#g)"/>
  <rect x="126" y="74" width="260" height="364" rx="22" fill="#f6a34b" stroke="#fff" stroke-width="18"/>
  <path d="M126 256h260M126 176h260M126 336h260" stroke="#fff" stroke-width="10" stroke-dasharray="22 18" opacity=".9"/>
  <path d="M100 256h312" stroke="#111827" stroke-width="16"/><path d="M100 256h312" stroke="#fff7e6" stroke-width="8" stroke-dasharray="16 14"/>
  <circle cx="256" cy="256" r="54" fill="#fff"/><path d="M256 202a54 54 0 0 1 44 86 90 90 0 0 0-44-86Z" fill="#0ea5e9"/><path d="M212 288a54 54 0 0 1 44-86 90 90 0 0 0-44 86Z" fill="#facc15"/><path d="M256 310a54 54 0 0 1-44-22 90 90 0 0 0 88 0 54 54 0 0 1-44 22Z" fill="#ef4444"/>
  <circle cx="190" cy="150" r="24" fill="#111827"/><circle cx="322" cy="150" r="24" fill="#111827"/><circle cx="190" cy="362" r="24" fill="#111827"/><circle cx="322" cy="362" r="24" fill="#111827"/>
</svg>
